# xmcd CD database file
#
# Track frame offsets:
#	150
#	33214
#	61902
#	102702
#	119206
#	155950
#	199014
#	253070
#	317150
#
# Disc length: 4483 seconds
#
# Revision: 1
# Processed by: cddbd v1.5.2PL0 Copyright (c) Steve Scherf et al.
# Submitted via: CDex 1.93
#
DISCID=88118109
DTITLE=Pack Rat's Smokehouse - Men Of the Swamp Live - Disk1
DYEAR=2018
DGENRE=Blues
TTITLE0=The Night Jack Frost Killed Possum Brown
TTITLE1=Hoo Doo Blues
TTITLE2=Hush Hush
TTITLE3=Low Down Rider
TTITLE4=Smoke Stack Lightnin'
TTITLE5=95 South
TTITLE6=Caress Me Baby
TTITLE7=Smokehouse Boogie
TTITLE8=Hoo Doo Woman Blues
EXTD=YEAR: 2018
EXTT0=
EXTT1=
EXTT2=
EXTT3=
EXTT4=
EXTT5=
EXTT6=
EXTT7=
EXTT8=
PLAYORDER=
